<svg width="50" height="34" viewBox="0 0 50 34" fill="none" xmlns="http://www.w3.org/2000/svg">
<path d="M16.6667 13.875C16.6667 15.5979 15.2646 17 13.5417 17C11.8187 17 10.4167 15.5979 10.4167 13.875C10.4167 12.1521 11.8187 10.75 13.5417 10.75C15.2646 10.75 16.6667 12.1521 16.6667 13.875ZM50 26.825C50 30.1312 48.8333 32.2229 46.3562 33.4479C46.0583 33.5958 45.7396 33.6667 45.4208 33.6667C44.9167 33.6667 44.4167 33.4854 44.0208 33.1354L37.5437 27.4167C36.3812 26.3875 35.3687 25.325 32.5354 25.325H17.4667C14.6333 25.325 13.6187 26.3875 12.4583 27.4167L5.97917 33.1354C5.5875 33.4854 5.08542 33.6667 4.57917 33.6667C4.2625 33.6667 3.93958 33.5958 3.64375 33.4479C1.16667 32.2229 0 30.1312 0 26.8271C0 22.5312 1.96875 15.45 5.58542 6.29167C7.29792 1.95209 10.3604 0.333336 13.2833 0.333336C14.65 0.333336 15.9875 0.687502 17.1437 1.28334C22.1937 3.88542 27.9146 3.83125 32.8604 1.28334C34.0125 0.687502 35.35 0.333336 36.7167 0.333336C39.6396 0.333336 42.7042 1.95209 44.4167 6.29167C48.0312 15.4479 50 22.5292 50 26.825ZM18.75 13.875C18.75 10.9979 16.4187 8.66667 13.5417 8.66667C10.6646 8.66667 8.33333 10.9979 8.33333 13.875C8.33333 16.7521 10.6646 19.0833 13.5417 19.0833C16.4187 19.0833 18.75 16.7521 18.75 13.875ZM27.0833 8.66667C27.0833 7.51667 26.1521 6.58333 25 6.58333C23.8479 6.58333 22.9167 7.51667 22.9167 8.66667C22.9167 9.81667 23.8479 10.75 25 10.75C26.1521 10.75 27.0833 9.81667 27.0833 8.66667ZM34.375 13.875C34.375 13.0104 33.675 12.3125 32.8125 12.3125C31.95 12.3125 31.25 13.0104 31.25 13.875C31.25 14.7396 31.95 15.4375 32.8125 15.4375C33.675 15.4375 34.375 14.7396 34.375 13.875ZM38.0208 17.5208C38.0208 16.6563 37.3208 15.9583 36.4583 15.9583C35.5958 15.9583 34.8958 16.6563 34.8958 17.5208C34.8958 18.3854 35.5958 19.0833 36.4583 19.0833C37.3208 19.0833 38.0208 18.3854 38.0208 17.5208ZM38.0208 10.1646C38.0208 9.3 37.3208 8.60208 36.4583 8.60208C35.5958 8.60208 34.8958 9.3 34.8958 10.1646C34.8958 11.0292 35.5958 11.7271 36.4583 11.7271C37.3208 11.7271 38.0208 11.0271 38.0208 10.1646ZM41.6333 13.875C41.6333 13.0104 40.9333 12.3125 40.0708 12.3125C39.2083 12.3125 38.5083 13.0104 38.5083 13.875C38.5083 14.7396 39.2083 15.4375 40.0708 15.4375C40.9333 15.4375 41.6333 14.7396 41.6333 13.875Z" fill="url(#paint0_linear)"/>
<defs>
<linearGradient id="paint0_linear" x1="50.4" y1="0.333336" x2="29.3622" y2="49.0207" gradientUnits="userSpaceOnUse">
<stop stop-color="#6596F6"/>
<stop offset="0.874352" stop-color="#65DFC9"/>
</linearGradient>
</defs>
</svg>
