<?xml version="1.0" standalone="no"?>
<!DOCTYPE svg PUBLIC "-//W3C//DTD SVG 20010904//EN"
 "http://www.w3.org/TR/2001/REC-SVG-20010904/DTD/svg10.dtd">
<svg version="1.0" xmlns="http://www.w3.org/2000/svg"
 width="300.000000pt" height="300.000000pt" viewBox="0 0 300.000000 300.000000"
 preserveAspectRatio="xMidYMid meet">
<metadata>
Created by potrace 1.16, written by Peter Selinger 2001-2019
</metadata>
<g transform="translate(0.000000,300.000000) scale(0.100000,-0.100000)"
fill="#000000" stroke="none">
<path d="M1230 2980 c-600 -106 -1072 -568 -1206 -1180 -29 -130 -27 -478 3
-612 60 -263 175 -492 344 -682 219 -245 478 -399 809 -478 84 -20 121 -22
320 -22 197 0 236 2 317 22 334 80 593 232 812 478 169 189 281 412 342 677
27 114 37 390 20 517 -87 648 -588 1171 -1229 1281 -151 25 -384 25 -532 -1z
m395 -60 c350 -33 630 -165 880 -415 124 -123 183 -202 260 -347 250 -471 203
-1068 -118 -1507 -116 -159 -319 -331 -495 -420 -366 -185 -789 -207 -1167
-60 -338 131 -605 378 -775 718 -17 34 -29 65 -26 68 2 3 102 -35 222 -85
l216 -89 19 -54 c58 -165 249 -280 415 -252 89 16 166 54 224 113 60 59 95
131 113 226 l12 68 235 167 c230 164 236 167 297 173 245 25 438 196 488 431
8 39 15 86 15 105 0 61 -29 173 -60 237 -39 78 -117 165 -194 215 -170 110
-404 110 -572 -1 -147 -96 -230 -234 -249 -415 -7 -68 -8 -69 -170 -304 l-162
-237 -64 -6 c-38 -3 -89 -17 -125 -33 l-62 -28 -193 80 c-501 206 -519 214
-519 231 0 61 24 251 42 326 137 592 645 1037 1248 1094 124 12 144 12 265 1z
m420 -834 c76 -34 139 -97 178 -175 29 -59 32 -75 32 -151 -1 -108 -33 -187
-107 -256 -76 -71 -145 -99 -248 -99 -71 0 -94 5 -142 27 -79 37 -142 98 -181
177 -29 59 -32 75 -32 151 0 71 5 95 27 142 48 104 147 186 250 208 67 14 163
4 223 -24z m-908 -962 c102 -49 158 -143 157 -264 0 -61 -5 -85 -26 -125 -81
-155 -264 -209 -409 -122 -48 29 -118 101 -108 111 2 2 47 -13 99 -34 120 -49
175 -52 250 -12 144 75 154 288 17 366 -23 13 -79 39 -124 57 -46 18 -81 35
-78 37 2 2 19 8 37 12 50 13 127 2 185 -26z"/>
<path d="M1838 2016 c-100 -27 -176 -106 -197 -206 -35 -161 92 -314 259 -313
74 0 123 18 175 65 143 125 108 361 -65 436 -63 28 -117 33 -172 18z"/>
</g>
</svg>
