<?xml version="1.0" standalone="no"?>
<!DOCTYPE svg PUBLIC "-//W3C//DTD SVG 20010904//EN"
 "http://www.w3.org/TR/2001/REC-SVG-20010904/DTD/svg10.dtd">
<svg version="1.0" xmlns="http://www.w3.org/2000/svg"
 width="50.000000pt" height="50.000000pt" viewBox="0 0 50.000000 50.000000"
 preserveAspectRatio="xMidYMid meet">
<metadata>
Created by potrace 1.16, written by Peter Selinger 2001-2019
</metadata>
<g transform="translate(0.000000,50.000000) scale(0.100000,-0.100000)"
fill="#000000" stroke="none">
<path d="M145 476 c-91 -43 -145 -126 -145 -226 0 -139 111 -250 250 -250 138
0 249 111 250 250 0 182 -191 304 -355 226z m211 -14 c84 -43 128 -117 128
-212 0 -137 -96 -234 -234 -234 -70 0 -114 16 -163 63 -28 25 -63 81 -52 81
16 0 72 -36 88 -56 10 -13 28 -24 41 -24 29 0 66 27 66 49 0 19 58 63 100 76
60 18 87 68 66 120 -16 39 -42 55 -86 55 -36 0 -80 -38 -80 -69 0 -30 -51 -99
-78 -106 -15 -3 -48 3 -84 17 l-60 23 6 39 c26 160 200 251 342 178z"/>
</g>
</svg>
